<?xml version="1.0" standalone="no"?>
<!DOCTYPE svg PUBLIC "-//W3C//DTD SVG 20010904//EN"
 "http://www.w3.org/TR/2001/REC-SVG-20010904/DTD/svg10.dtd">
<svg version="1.0" xmlns="http://www.w3.org/2000/svg"
 width="840.000000pt" height="879.000000pt" viewBox="0 0 840.000000 879.000000"
 preserveAspectRatio="xMidYMid meet">

<g transform="translate(0.000000,879.000000) scale(0.100000,-0.100000)"
fill="#000000" stroke="none">
<path d="M2920 8373 c-226 -7 -547 -26 -656 -38 -655 -77 -1141 -321 -1512
-760 -298 -353 -467 -818 -511 -1400 -26 -347 -33 -814 -28 -2005 6 -1374 13
-1574 68 -1890 96 -557 326 -983 706 -1311 350 -302 775 -470 1333 -529 281
-29 601 -35 1885 -35 1511 0 1750 8 2100 66 393 66 735 207 1018 421 109 82
307 282 389 391 279 376 420 811 458 1412 43 689 36 2987 -11 3520 -48 553
-207 990 -486 1335 -82 101 -269 281 -371 358 -280 210 -648 353 -1052 412
-165 23 -357 38 -640 49 -192 7 -2478 11 -2690 4z m2889 -732 c341 -22 574
-68 775 -150 356 -146 621 -428 749 -797 125 -358 141 -620 141 -2299 0 -1467
-12 -1787 -80 -2094 -66 -296 -175 -508 -360 -701 -241 -250 -559 -392 -984
-439 -285 -31 -530 -36 -1840 -36 -1355 0 -1622 6 -1887 40 -422 56 -696 177
-933 415 -161 160 -254 312 -329 536 -119 356 -136 693 -128 2509 6 1374 13
1548 73 1838 48 227 141 446 255 597 73 97 225 243 316 303 198 132 461 220
762 257 76 9 369 26 581 34 229 8 2741 -3 2889 -13z"/>
<path d="M6213 6985 c-212 -57 -354 -242 -354 -461 0 -99 12 -148 54 -229 92
-173 300 -277 491 -246 39 7 99 25 134 41 71 33 171 123 209 188 82 139 84
329 7 473 -37 67 -124 156 -190 191 -103 56 -241 72 -351 43z"/>
<path d="M4015 6433 c-119 -15 -251 -38 -333 -60 -253 -65 -522 -197 -737
-362 -84 -64 -266 -242 -338 -331 -337 -417 -499 -955 -446 -1486 56 -572 357
-1105 815 -1445 616 -457 1429 -535 2113 -204 718 348 1161 1052 1161 1843 0
81 -5 187 -10 237 -46 400 -210 776 -479 1097 -329 392 -830 655 -1350 708
-97 9 -329 12 -396 3z m488 -747 c526 -123 925 -549 1013 -1085 22 -134 15
-374 -15 -502 -54 -235 -178 -464 -344 -632 -98 -99 -180 -163 -292 -227 -534
-308 -1200 -210 -1627 239 -194 203 -310 443 -353 726 -74 495 156 1011 577
1291 144 96 347 178 503 203 39 6 81 13 95 15 14 3 95 3 180 1 121 -3 179 -9
263 -29z"/>
</g>
</svg>
